<svg width="485" height="182" viewBox="0 0 485 182" fill="none" xmlns="http://www.w3.org/2000/svg">
<line x1="442.5" y1="2.18557e-08" x2="442.5" y2="38" stroke="black"/>
<line x1="442.5" y1="46" x2="442.5" y2="84" stroke="black"/>
<line x1="447" y1="41.5" x2="485" y2="41.5" stroke="black"/>
<line x1="400" y1="41.5" x2="438" y2="41.5" stroke="black"/>
<g opacity="0.16">
<line x1="342.5" y1="2.18557e-08" x2="342.5" y2="38" stroke="black"/>
<line x1="342.5" y1="46" x2="342.5" y2="84" stroke="black"/>
<line x1="347" y1="41.5" x2="385" y2="41.5" stroke="black"/>
<line x1="300" y1="41.5" x2="338" y2="41.5" stroke="black"/>
</g>
<g opacity="0.06">
<line x1="342.5" y1="98" x2="342.5" y2="136" stroke="black"/>
<line x1="342.5" y1="144" x2="342.5" y2="182" stroke="black"/>
<line x1="347" y1="139.5" x2="385" y2="139.5" stroke="black"/>
<line x1="300" y1="139.5" x2="338" y2="139.5" stroke="black"/>
</g>
<g opacity="0.06">
<line x1="442.5" y1="98" x2="442.5" y2="136" stroke="black"/>
<line x1="442.5" y1="144" x2="442.5" y2="182" stroke="black"/>
<line x1="447" y1="139.5" x2="485" y2="139.5" stroke="black"/>
<line x1="400" y1="139.5" x2="438" y2="139.5" stroke="black"/>
</g>
<g opacity="0.22">
<line x1="242.5" y1="98" x2="242.5" y2="136" stroke="black"/>
<line x1="242.5" y1="144" x2="242.5" y2="182" stroke="black"/>
<line x1="247" y1="139.5" x2="285" y2="139.5" stroke="black"/>
<line x1="200" y1="139.5" x2="238" y2="139.5" stroke="black"/>
</g>
<g opacity="0.06">
<line x1="142.5" y1="98" x2="142.5" y2="136" stroke="black"/>
<line x1="142.5" y1="144" x2="142.5" y2="182" stroke="black"/>
<line x1="147" y1="139.5" x2="185" y2="139.5" stroke="black"/>
<line x1="100" y1="139.5" x2="138" y2="139.5" stroke="black"/>
</g>
<g opacity="0.06">
<line x1="42.5" y1="98" x2="42.5" y2="136" stroke="black"/>
<line x1="42.5" y1="144" x2="42.5" y2="182" stroke="black"/>
<line x1="47" y1="139.5" x2="85" y2="139.5" stroke="black"/>
<line y1="139.5" x2="38" y2="139.5" stroke="black"/>
</g>
<g opacity="0.06">
<line x1="242.5" y1="2.18557e-08" x2="242.5" y2="38" stroke="black"/>
<line x1="242.5" y1="46" x2="242.5" y2="84" stroke="black"/>
<line x1="247" y1="41.5" x2="285" y2="41.5" stroke="black"/>
<line x1="200" y1="41.5" x2="238" y2="41.5" stroke="black"/>
</g>
<g opacity="0.18">
<line x1="142.5" y1="2.18557e-08" x2="142.5" y2="38" stroke="black"/>
<line x1="142.5" y1="46" x2="142.5" y2="84" stroke="black"/>
<line x1="147" y1="41.5" x2="185" y2="41.5" stroke="black"/>
<line x1="100" y1="41.5" x2="138" y2="41.5" stroke="black"/>
</g>
<g opacity="0.06">
<line x1="42.5" y1="2.18557e-08" x2="42.5" y2="38" stroke="black"/>
<line x1="42.5" y1="46" x2="42.5" y2="84" stroke="black"/>
<line x1="47" y1="41.5" x2="85" y2="41.5" stroke="black"/>
<line y1="41.5" x2="38" y2="41.5" stroke="black"/>
</g>
</svg>
