<svg xmlns="http://www.w3.org/2000/svg" width="20" height="20" viewBox="0 0 20 20" fill="none">
    <path
        d="M3.33337 3.33335V16.6667C3.33337 17.1087 3.50897 17.5326 3.82153 17.8452C4.13409 18.1578 4.55801 18.3334 5.00004 18.3334H15C15.4421 18.3334 15.866 18.1578 16.1786 17.8452C16.4911 17.5326 16.6667 17.1087 16.6667 16.6667V6.95169C16.6667 6.72965 16.6223 6.50986 16.5361 6.30522C16.45 6.10058 16.3238 5.91522 16.165 5.76002L12.465 2.14169C12.1537 1.83724 11.7355 1.66674 11.3 1.66669H5.00004C4.55801 1.66669 4.13409 1.84228 3.82153 2.15484C3.50897 2.4674 3.33337 2.89133 3.33337 3.33335Z"
        stroke="currentColor"
        stroke-width="2"
        stroke-linecap="round"
        stroke-linejoin="round"
    />
    <path
        d="M11.6667 1.66669V5.00002C11.6667 5.44205 11.8423 5.86597 12.1549 6.17853C12.4675 6.49109 12.8914 6.66669 13.3334 6.66669H16.6667"
        stroke="currentColor"
        stroke-width="2"
        stroke-linejoin="round"
    />
</svg>