<svg width="24" height="24" viewBox="0 0 24 24" fill="none" xmlns="http://www.w3.org/2000/svg">
<path d="M19.647 15.536H4.353M19.647 15.536V8C19.647 6.114 19.647 5.172 19.061 4.586C18.476 4 17.533 4 15.647 4H8.353C6.467 4 5.525 4 4.939 4.586C4.353 5.172 4.353 6.114 4.353 8V15.536M19.647 15.536L21.391 17.336L21.479 17.428C21.7998 17.7804 21.9842 18.2357 21.999 18.712L22 18.839C22 18.989 22 19.063 21.996 19.126C21.9653 19.6119 21.7585 20.0699 21.4142 20.4142C21.0699 20.7585 20.6119 20.9653 20.126 20.996C20.0304 21.0001 19.9347 21.0014 19.839 21H4.161C4.011 21 3.937 21 3.874 20.996C3.3881 20.9653 2.93008 20.7585 2.58581 20.4142C2.24155 20.0699 2.03468 19.6119 2.004 19.126C2 19.063 2 18.988 2 18.84L2.001 18.713C2.01584 18.2367 2.20024 17.7814 2.521 17.429L2.609 17.337L4.353 15.536M9.5 18.5H14.5" stroke="url(#paint0_linear_351_417)" stroke-width="1.5" stroke-linecap="round" stroke-linejoin="round"/>
<path d="M12.75 6.75C12.75 6.94891 12.671 7.13968 12.5303 7.28033C12.3897 7.42098 12.1989 7.5 12 7.5C11.8011 7.5 11.6103 7.42098 11.4697 7.28033C11.329 7.13968 11.25 6.94891 11.25 6.75C11.25 6.55109 11.329 6.36032 11.4697 6.21967C11.6103 6.07902 11.8011 6 12 6C12.1989 6 12.3897 6.07902 12.5303 6.21967C12.671 6.36032 12.75 6.55109 12.75 6.75Z" stroke="url(#paint1_linear_351_417)" stroke-width="1.5" stroke-linecap="round" stroke-linejoin="round"/>
<defs>
<linearGradient id="paint0_linear_351_417" x1="12" y1="4" x2="12" y2="21.0005" gradientUnits="userSpaceOnUse">
<stop stop-color="#A435F0"/>
<stop offset="1" stop-color="#03B9C8"/>
</linearGradient>
<linearGradient id="paint1_linear_351_417" x1="12" y1="6" x2="12" y2="7.5" gradientUnits="userSpaceOnUse">
<stop stop-color="#A435F0"/>
<stop offset="1" stop-color="#03B9C8"/>
</linearGradient>
</defs>
</svg>
