<svg width="24" height="24" viewBox="0 0 24 24" fill="none" xmlns="http://www.w3.org/2000/svg">
<path d="M3.296 20.6021L9.66 14.2381M17.674 11.4081L15.769 17.1231C15.7386 17.2147 15.6865 17.2976 15.6173 17.3648C15.548 17.432 15.4635 17.4815 15.371 17.5091L3.693 20.9801C3.58779 21.0113 3.47603 21.0131 3.36987 20.9853C3.26372 20.9574 3.16723 20.901 3.09093 20.8221C3.01462 20.7432 2.96141 20.6449 2.9371 20.5379C2.91278 20.4308 2.91828 20.3192 2.953 20.2151L6.745 8.84108C6.77218 8.75942 6.81661 8.68455 6.87527 8.62157C6.93394 8.5586 7.00547 8.50898 7.085 8.47608L12.472 6.25808C12.5815 6.21285 12.702 6.20106 12.8182 6.22419C12.9344 6.24733 13.0412 6.30436 13.125 6.38808L17.529 10.7941C17.6078 10.8729 17.6631 10.972 17.6887 11.0805C17.7143 11.1889 17.7092 11.3024 17.674 11.4081Z" stroke="url(#paint0_linear_351_425)" stroke-width="1.5" stroke-linecap="round" stroke-linejoin="round"/>
<path d="M17.792 11.056L20.62 8.22699C20.995 7.85194 21.2056 7.34332 21.2056 6.81299C21.2056 6.28266 20.995 5.77405 20.62 5.39899L18.5 3.27699C18.3143 3.09119 18.0938 2.9438 17.8511 2.84324C17.6084 2.74268 17.3482 2.69092 17.0855 2.69092C16.8228 2.69092 16.5627 2.74268 16.32 2.84324C16.0773 2.9438 15.8568 3.09119 15.671 3.27699L12.843 6.10599M11.781 12.116C11.6417 11.9767 11.4763 11.8663 11.2943 11.7909C11.1122 11.7156 10.9172 11.6768 10.7202 11.6769C10.5232 11.6769 10.3281 11.7158 10.1461 11.7912C9.96414 11.8666 9.79879 11.9772 9.65952 12.1165C9.52026 12.2558 9.4098 12.4212 9.33445 12.6032C9.25911 12.7853 9.22035 12.9803 9.2204 13.1773C9.22044 13.3743 9.25929 13.5694 9.33472 13.7514C9.41015 13.9334 9.52069 14.0987 9.66002 14.238C9.94142 14.5193 10.323 14.6772 10.7209 14.6771C11.1187 14.677 11.5003 14.5189 11.7815 14.2375C12.0628 13.9561 12.2207 13.5745 12.2207 13.1766C12.2206 12.7788 12.0624 12.3973 11.781 12.116Z" stroke="url(#paint1_linear_351_425)" stroke-width="1.5" stroke-linecap="round" stroke-linejoin="round"/>
<defs>
<linearGradient id="paint0_linear_351_425" x1="10.3135" y1="6.21265" x2="10.3135" y2="21.0049" gradientUnits="userSpaceOnUse">
<stop stop-color="#A435F0"/>
<stop offset="1" stop-color="#03B9C8"/>
</linearGradient>
<linearGradient id="paint1_linear_351_425" x1="15.213" y1="2.69092" x2="15.213" y2="14.6771" gradientUnits="userSpaceOnUse">
<stop stop-color="#A435F0"/>
<stop offset="1" stop-color="#03B9C8"/>
</linearGradient>
</defs>
</svg>
