<svg
    xmlns="http://www.w3.org/2000/svg"
    width="20"
    height="20"
    viewBox="0 0 20 20"
    fill="none"
>
    <path
        d="M15.5 5.51666C17.9833 5.51666 20 7.5 20 10C20 12.4667 17.9833 14.475 15.5 14.475C14.2917 14.475 13.1667 14.0083 12.3167 13.1667L10 11.1167L7.64167 13.2083C6.83333 14.0167 5.7 14.4833 4.5 14.4833C2.01667 14.4833 0 12.4667 0 10C0 7.53333 2.01667 5.51666 4.5 5.51666C5.7 5.51666 6.83333 5.98333 7.68333 6.83333L10 8.88333L12.3583 6.79166C13.1667 5.98333 14.3 5.51666 15.5 5.51666ZM6.5 11.9917L8.75 10L6.53333 8.04166C5.96667 7.475 5.25833 7.18333 4.5 7.18333C2.94167 7.18333 1.66667 8.44166 1.66667 10C1.66667 11.5583 2.94167 12.8167 4.5 12.8167C5.25833 12.8167 5.96667 12.525 6.5 11.9917ZM13.5 8.00833L11.25 10L13.4667 11.9583C14.0333 12.525 14.75 12.8167 15.5 12.8167C17.0583 12.8167 18.3333 11.5583 18.3333 10C18.3333 8.44166 17.0583 7.18333 15.5 7.18333C14.7417 7.18333 14.0333 7.475 13.5 8.00833Z"
        fill="currentColor"
    />
</svg>