<svg
    xmlns="http://www.w3.org/2000/svg"
    width="12"
    height="20"
    viewBox="0 0 12 20"
    fill="none"
>
    <g clipPath="url(#clip0_49_315)">
        <path
            d="M7.25 18C7.25 17.6562 7.1276 17.362 6.88281 17.1172C6.63802 16.8724 6.34375 16.75 6 16.75C5.65625 16.75 5.36198 16.8724 5.11719 17.1172C4.8724 17.362 4.75 17.6562 4.75 18C4.75 18.3438 4.8724 18.638 5.11719 18.8828C5.36198 19.1276 5.65625 19.25 6 19.25C6.34375 19.25 6.63802 19.1276 6.88281 18.8828C7.1276 18.638 7.25 18.3438 7.25 18ZM10.5 15.5V4.5C10.5 4.36458 10.4505 4.2474 10.3516 4.14844C10.2526 4.04948 10.1354 4 10 4H2C1.86458 4 1.7474 4.04948 1.64844 4.14844C1.54948 4.2474 1.5 4.36458 1.5 4.5V15.5C1.5 15.6354 1.54948 15.7526 1.64844 15.8516C1.7474 15.9505 1.86458 16 2 16H10C10.1354 16 10.2526 15.9505 10.3516 15.8516C10.4505 15.7526 10.5 15.6354 10.5 15.5ZM7.5 2.25C7.5 2.08333 7.41667 2 7.25 2H4.75C4.58333 2 4.5 2.08333 4.5 2.25C4.5 2.41667 4.58333 2.5 4.75 2.5H7.25C7.41667 2.5 7.5 2.41667 7.5 2.25ZM12 2V18C12 18.5417 11.8021 19.0104 11.4062 19.4062C11.0104 19.8021 10.5417 20 10 20H2C1.45833 20 0.989583 19.8021 0.59375 19.4062C0.197917 19.0104 0 18.5417 0 18V2C0 1.45833 0.197917 0.989583 0.59375 0.59375C0.989583 0.197917 1.45833 0 2 0H10C10.5417 0 11.0104 0.197917 11.4062 0.59375C11.8021 0.989583 12 1.45833 12 2Z"
            fill="currentColor"
        />
    </g>
    <defs>
        <clipPath id="clip0_49_315">
            <rect width="12" height="20" fill="currentColor" />
        </clipPath>
    </defs>
</svg>