<svg xmlns="http://www.w3.org/2000/svg" width="20" height="20" viewBox="0 0 20 20" fill="none">
    <path 
      d="M2.5 13.125V6.87498C2.5 6.43295 2.67559 6.00903 2.98816 5.69647C3.30072 5.38391 3.72464 5.20831 4.16667 5.20831H11.25C11.692 5.20831 12.116 5.38391 12.4285 5.69647C12.7411 6.00903 12.9167 6.43295 12.9167 6.87498V13.125C12.9167 13.567 12.7411 13.9909 12.4285 14.3035C12.116 14.6161 11.692 14.7916 11.25 14.7916H4.16667C3.72464 14.7916 3.30072 14.6161 2.98816 14.3035C2.67559 13.9909 2.5 13.567 2.5 13.125ZM16.8067 5.82581L13.4733 8.79498C13.4294 8.83399 13.3942 8.88185 13.3701 8.93542C13.346 8.98899 13.3334 9.04706 13.3333 9.10581V10.5875C13.3334 10.6462 13.346 10.7043 13.3701 10.7579C13.3942 10.8114 13.4294 10.8593 13.4733 10.8983L16.8067 13.8675C16.8667 13.9208 16.9409 13.9556 17.0203 13.9678C17.0997 13.9799 17.1809 13.9689 17.2542 13.936C17.3274 13.903 17.3896 13.8496 17.4332 13.7822C17.4768 13.7147 17.5 13.6361 17.5 13.5558V6.13748C17.5 6.05716 17.4768 5.97855 17.4332 5.91111C17.3896 5.84366 17.3274 5.79026 17.2542 5.75733C17.1809 5.7244 17.0997 5.71335 17.0203 5.7255C16.9409 5.73765 16.8667 5.77248 16.8067 5.82581Z"
      stroke="currentColor" 
      stroke-width="1.5"
      stroke-linecap="round"
      stroke-linejoin="round"
    />
  </svg>